# xmcd CD database file
#
# Track frame offsets:
#	183
#	11810
#	23893
#	36718
#	50108
#	63205
#	76503
#	88645
#	102668
#	114655
#	128273
#	141168
#
# Disc length: 2043 seconds
#
# Revision: 0
# Processed by: cddbd v1.4PL0 Copyright (c) Steve Scherf et al.
# Submitted via: CDex 1.50beta9
#
DISCID=9e07f90c
DTITLE=Celia Cruz - Canta Celia Cruz (Celia Cruz sings)
DYEAR=1989
DGENRE=Salsa
TTITLE0=Contestacion del marinero
TTITLE1=Mi soncito
TTITLE2=Munecas del cha cha cha
TTITLE3=El merengue
TTITLE4=Yerbero moderno
TTITLE5=Oyela, gozala
TTITLE6=Sandungueate
TTITLE7=Goza negra
TTITLE8=Burundanga
TTITLE9=Nuevo ritmo Omelenko
TTITLE10=Plegaria al Loroye
TTITLE11=Juancito Trucupey
EXTD=YEAR: 1989
EXTT0=
EXTT1=
EXTT2=
EXTT3=
EXTT4=
EXTT5=
EXTT6=
EXTT7=
EXTT8=
EXTT9=
EXTT10=
EXTT11=
PLAYORDER=
